<?xml version="1.0" encoding="UTF-8"?>
<svg version="1.1" xmlns="http://www.w3.org/2000/svg" width="242" height="241">
<path d="M0 0 C4.09222047 3.77850681 6.71390452 8.22412952 9.29296875 13.1171875 C9.65390625 13.73980469 10.01484375 14.36242187 10.38671875 15.00390625 C13.94906344 22.342996 13.33680733 32.95094293 11.75390625 40.78515625 C10.2836858 44.96155171 7.87340107 48.5579705 5.29296875 52.1171875 C0.83044684 51.5405695 -2.53558525 49.7075551 -6.33203125 47.4296875 C-7.58410684 46.69571215 -8.83671668 45.96264744 -10.08984375 45.23046875 C-11.01265137 44.6883374 -11.01265137 44.6883374 -11.95410156 44.13525391 C-14.34550585 42.74637426 -16.77234953 41.42844783 -19.20703125 40.1171875 C-20.07585937 39.63765625 -20.9446875 39.158125 -21.83984375 38.6640625 C-23.98738394 37.50544409 -26.13919082 36.40309743 -28.32421875 35.3203125 C-35.29610812 31.75386728 -40.04603099 28.80962671 -42.91015625 21.12109375 C-43.52326428 18.93162479 -43.52326428 18.93162479 -45.70703125 18.1171875 C-49.38033089 17.98361297 -52.20556084 17.9500307 -55.70703125 19.1171875 C-56.91964002 22.75501382 -57.10247677 25.29454749 -56.70703125 29.1171875 C-55.89379395 29.76905029 -55.08055664 30.42091309 -54.24267578 31.0925293 C-50.36169807 35.72197594 -50.83957189 40.26063951 -50.76171875 46.13671875 C-50.72608322 47.8955262 -50.72608322 47.8955262 -50.68972778 49.68986511 C-50.65130419 52.16847525 -50.62697496 54.6473383 -50.61572266 57.1262207 C-50.58221 60.90950828 -50.45289059 64.68195075 -50.3203125 68.46289062 C-50.01084709 85.34204252 -50.01084709 85.34204252 -52.82562256 89.94732666 C-56.15360631 93.26210936 -60.3726771 94.5779618 -64.70703125 96.1171875 C-66.96890117 97.38092472 -69.20671314 98.6887159 -71.41796875 100.0390625 C-73.63819784 101.31706072 -75.85955259 102.59310536 -78.08203125 103.8671875 C-79.20480469 104.51300781 -80.32757813 105.15882813 -81.484375 105.82421875 C-83.62614716 107.05567452 -85.77021227 108.28315447 -87.91699219 109.50585938 C-89.59692339 110.47606816 -91.26583892 111.46628755 -92.91113281 112.49414062 C-97.26954393 115.19872145 -97.26954393 115.19872145 -99.89208984 114.70996094 C-100.49102051 114.5143457 -101.08995117 114.31873047 -101.70703125 114.1171875 C-102.75578608 105.91365231 -102.85257313 97.78918312 -102.83984375 89.52734375 C-102.84051942 88.13309207 -102.84149162 86.73884051 -102.84274292 85.34458923 C-102.84420802 82.4374783 -102.84210418 79.53039832 -102.83740234 76.62329102 C-102.83171115 72.92756968 -102.83498782 69.2319211 -102.84097481 65.53620243 C-102.84461726 62.66116301 -102.84342496 59.78614036 -102.84084702 56.91110039 C-102.83987078 54.89565355 -102.84286771 52.88020602 -102.84597778 50.86476135 C-102.8030508 33.86615736 -102.8030508 33.86615736 -101.70703125 29.1171875 C-99.20317202 26.75823534 -97.76327186 25.76096756 -94.76953125 24.3671875 C-93.21774682 23.55138453 -91.66703612 22.73353712 -90.1171875 21.9140625 C-88.82965576 21.25760742 -88.82965576 21.25760742 -87.51611328 20.58789062 C-82.14621916 17.77646683 -76.94379075 14.66712241 -71.70703125 11.6171875 C-69.4677853 10.330142 -67.228207 9.04367454 -64.98828125 7.7578125 C-61.17147999 5.55740358 -57.37685865 3.32927801 -53.61328125 1.0390625 C-35.4416085 -10.01634873 -18.27973261 -13.54269538 0 0 Z " fill="#AE296D" transform="translate(171.70703125,28.8828125)"/>
<path d="M0 0 C4.66320245 0.57845069 8.25807657 2.60981783 12.25 4.9375 C12.95036377 5.33864014 13.65072754 5.73978027 14.37231445 6.15307617 C20.03541243 9.4077664 25.66130755 12.7271792 31.28344727 16.05200195 C37.05567031 19.46116599 42.86508754 22.80238227 48.6875 26.125 C49.57308594 26.6312793 50.45867187 27.13755859 51.37109375 27.65917969 C55.36146176 29.93748416 59.35690196 32.20451487 63.375 34.43359375 C64.35206909 34.97959229 64.35206909 34.97959229 65.34887695 35.53662109 C67.05644589 36.48937699 68.7682873 37.43446453 70.48046875 38.37890625 C73 40 73 40 75 43 C75.25396729 45.74766541 75.25396729 45.74766541 75.25878906 49.11694336 C75.26509338 50.37933334 75.27139771 51.64172333 75.27789307 52.94236755 C75.27430979 54.32486102 75.27020697 55.70735323 75.265625 57.08984375 C75.26697346 58.51412523 75.2689155 59.93840625 75.27142334 61.36268616 C75.27437468 64.35454674 75.27008245 67.34628805 75.26074219 70.33813477 C75.24944056 74.14052757 75.2558473 77.9426351 75.26788712 81.74501705 C75.27518548 84.69218511 75.27278005 87.63928795 75.26763153 90.58645821 C75.26631208 91.9860392 75.26788182 93.38562643 75.27259064 94.78520012 C75.31201371 109.81794022 74.30473569 123.03651563 64 134.75 C56.70368986 141.41815099 46.82825281 145.93982682 36.94140625 146.203125 C25.45144349 145.40966144 15.40832054 141.28084296 7.51171875 132.83203125 C1.86378934 125.98738295 1.86378934 125.98738295 2.13891602 121.97314453 C3.31728275 119.27295742 4.73509435 118.57566676 7.27734375 117.1171875 C8.17477295 116.59406982 9.07220215 116.07095215 9.99682617 115.53198242 C10.96724854 114.98517822 11.9376709 114.43837402 12.9375 113.875 C14.42310425 113.024823 14.42310425 113.024823 15.9387207 112.1574707 C17.97392335 110.99508041 20.01195283 109.83762602 22.05273438 108.68505859 C24.75553534 107.13976931 27.42012383 105.54652658 30.078125 103.92578125 C43.76093193 95.71581271 43.76093193 95.71581271 51.8359375 96.84375 C54.49934023 97.03605345 55.78333857 96.44522419 58 95 C59.58770472 91.82459056 59.41100302 88.45809441 59 85 C57.45661909 82.82523599 56.36334727 82.18167363 54 81 C53.3503125 81.08378906 52.700625 81.16757813 52.03125 81.25390625 C42.31628768 82.43829209 35.31337747 77.28257354 27.35498047 72.43310547 C24.30224991 70.57538948 21.21775453 68.77465146 18.13134766 66.97363281 C16.68290037 66.12448744 15.23844902 65.26848428 13.79833984 64.40527344 C9.47498555 61.81516968 5.12504551 59.47549985 0.46875 57.5234375 C-3.41504078 53.49503749 -2.16080377 43.86311689 -2.16796875 38.49609375 C-2.17129715 37.6139772 -2.17462555 36.73186066 -2.17805481 35.82301331 C-2.18308751 33.96998613 -2.18546428 32.11695001 -2.18530273 30.26391602 C-2.18749645 27.4420682 -2.20571079 24.62060736 -2.22460938 21.79882812 C-2.2275427 19.98958466 -2.2295279 18.18033935 -2.23046875 16.37109375 C-2.24124702 15.11769447 -2.24124702 15.11769447 -2.25224304 13.838974 C-2.23289969 8.84379757 -1.60220149 4.73754748 0 0 Z " fill="#ED7458" transform="translate(127,62)"/>
<path d="M0 0 C1.59908203 -0.00386719 1.59908203 -0.00386719 3.23046875 -0.0078125 C5.8125 0.125 5.8125 0.125 6.8125 1.125 C6.93175374 2.6577641 6.98259339 4.19592678 7.00537109 5.7331543 C7.02143402 6.71475021 7.03749695 7.69634613 7.05404663 8.70768738 C7.09840204 13.21617066 7.1395864 17.72450376 7.16259766 22.2331543 C7.17913763 24.61053266 7.20640143 26.98786169 7.24462891 29.36499023 C7.29943854 32.78916279 7.32128167 36.21216636 7.3359375 39.63671875 C7.35860687 40.69630295 7.38127625 41.75588715 7.40463257 42.84757996 C7.38548358 49.54867858 6.56502033 52.39810098 1.8125 57.125 C1.37490972 60.77158569 1.8944795 63.61846266 2.8125 67.125 C4.39263217 67.37528811 5.97692306 67.59940946 7.5625 67.8125 C8.44421875 67.94011719 9.3259375 68.06773437 10.234375 68.19921875 C13.43857034 68.10697676 14.58003966 67.38776523 16.8125 65.125 C17.245625 63.2996875 17.245625 63.2996875 17.6875 61.4375 C19.8630904 55.2471603 25.95663258 53.19116643 31.42822266 50.37939453 C36.26877808 47.83272509 40.99722033 45.08079414 45.75 42.375 C48.60537546 40.76165199 51.46147127 39.14993472 54.32373047 37.54882812 C55.86257348 36.66845414 57.38650298 35.76064819 58.88330078 34.81054688 C63.24090761 32.0663019 63.24090761 32.0663019 66.20654297 32.37084961 C68.96236579 33.16837038 71.13976199 34.22184482 73.62890625 35.64453125 C74.54921631 36.16700439 75.46952637 36.68947754 76.41772461 37.2277832 C77.39362549 37.79198975 78.36952637 38.35619629 79.375 38.9375 C80.38119385 39.51266357 81.3873877 40.08782715 82.42407227 40.68041992 C92.30489791 46.35304692 102.08028811 52.20167701 111.8125 58.125 C111.765625 60.33984375 111.765625 60.33984375 110.8125 63.125 C108.40066791 64.89102426 106.17334365 66.28054051 103.5625 67.6875 C102.80380615 68.11458252 102.0451123 68.54166504 101.26342773 68.98168945 C99.62771836 69.9016205 97.98815396 70.81472361 96.34521484 71.72167969 C93.01924614 73.56452412 89.72265483 75.45661676 86.42504883 77.34960938 C83.81772658 78.84535614 81.20598687 80.33316793 78.59375 81.8203125 C74.35581711 84.23753682 70.12844493 86.67260611 65.90625 89.1171875 C65.3214537 89.45557144 64.73665741 89.79395538 64.13414001 90.14259338 C61.26079058 91.80542202 58.38852784 93.47005786 55.51782227 95.13745117 C53.94859009 96.04587769 53.94859009 96.04587769 52.34765625 96.97265625 C51.423479 97.50898682 50.49930176 98.04531738 49.54711914 98.59790039 C48.64469482 99.10184326 47.74227051 99.60578613 46.8125 100.125 C45.3109436 100.99596313 45.3109436 100.99596313 43.77905273 101.88452148 C40.39132791 103.30111517 39.22745427 103.32489443 35.8125 102.125 C33.9460806 101.2314174 32.11400073 100.26423243 30.3125 99.24609375 C29.26658691 98.65828125 28.22067383 98.07046875 27.14306641 97.46484375 C25.49443604 96.52318359 25.49443604 96.52318359 23.8125 95.5625 C22.68634277 94.92570312 21.56018555 94.28890625 20.39990234 93.6328125 C13.68231325 89.81694989 7.0531819 85.90171948 0.515625 81.78515625 C-2.21420019 80.10860176 -4.98802643 78.57335667 -7.8125 77.0625 C-20.85383757 70.00953172 -30.57854683 63.33280286 -36.1875 49.125 C-38.71076895 39.17657017 -37.79395467 29.26638053 -33.1875 20.125 C-27.37661028 10.37714653 -19.07213563 3.93261874 -8.30859375 0.53125 C-5.5151563 -0.00377301 -2.84241027 -0.00692426 0 0 Z " fill="#EFB958" transform="translate(57.1875,90.875)"/>
<path d="M0 0 C1.29640378 0.59393382 2.58698839 1.20057989 3.875 1.8125 C4.59429687 2.14894531 5.31359375 2.48539062 6.0546875 2.83203125 C8 4 8 4 10 7 C10.25396729 9.74766541 10.25396729 9.74766541 10.25878906 13.11694336 C10.26509338 14.37933334 10.27139771 15.64172333 10.27789307 16.94236755 C10.27430979 18.32486102 10.27020697 19.70735323 10.265625 21.08984375 C10.26697346 22.51412523 10.2689155 23.93840625 10.27142334 25.36268616 C10.27437468 28.35454674 10.27008245 31.34628805 10.26074219 34.33813477 C10.24944056 38.14052757 10.2558473 41.9426351 10.26788712 45.74501705 C10.27518548 48.69218511 10.27278005 51.63928795 10.26763153 54.58645821 C10.26631208 55.9860392 10.26788182 57.38562643 10.27259064 58.78520012 C10.31204331 73.82922911 9.37077682 87.23900426 -1.1875 98.8125 C-5.46081791 102.76077807 -10.59411533 105.86519204 -16 108 C-16.99 107.67 -17.98 107.34 -19 107 C-18.26394531 106.61328125 -17.52789062 106.2265625 -16.76953125 105.828125 C-8.16508734 101.78340684 -8.16508734 101.78340684 -2 95 C-1.34 95 -0.68 95 0 95 C0 94.01 0 93.02 0 92 C0.66 92 1.32 92 2 92 C6.53716492 81.0646283 7.42283702 70.66734693 7.29296875 58.953125 C7.28735837 57.4457034 7.28309511 55.93827625 7.28010559 54.43084717 C7.26877003 50.50500809 7.23940348 46.57951357 7.20599365 42.65380859 C7.17504604 38.63123228 7.16154805 34.6085991 7.14648438 30.5859375 C7.11452013 22.72380199 7.06346467 14.86194412 7 7 C2.545 5.02 2.545 5.02 -2 3 C-1.34 2.67 -0.68 2.34 0 2 C0 1.34 0 0.68 0 0 Z " fill="#CD6A53" transform="translate(192,98)"/>
<path d="M0 0 C1.59908203 -0.00386719 1.59908203 -0.00386719 3.23046875 -0.0078125 C5.8125 0.125 5.8125 0.125 6.8125 1.125 C6.93175374 2.6577641 6.98259339 4.19592678 7.00537109 5.7331543 C7.02143402 6.71475021 7.03749695 7.69634613 7.05404663 8.70768738 C7.09840204 13.21617066 7.1395864 17.72450376 7.16259766 22.2331543 C7.17913763 24.61053266 7.20640143 26.98786169 7.24462891 29.36499023 C7.29943854 32.78916279 7.32128167 36.21216636 7.3359375 39.63671875 C7.35860687 40.69630295 7.38127625 41.75588715 7.40463257 42.84757996 C7.38107454 51.09159834 7.38107454 51.09159834 4.33056641 54.66333008 C3.49960449 55.47568115 2.66864258 56.28803223 1.8125 57.125 C0.94707301 59.84613503 0.94707301 59.84613503 0.8125 62.125 C0.4825 62.125 0.1525 62.125 -0.1875 62.125 C-0.59605365 58.14160196 -0.08956876 55.74346196 1.78515625 52.31640625 C4.71689351 45.92183875 4.44529197 39.42422704 4.5 32.5 C4.52444111 31.15669704 4.55106091 29.813432 4.57983398 28.47021484 C4.63502473 25.85849263 4.68572703 23.24667083 4.73144531 20.63476562 C4.87432015 14.44811312 5.30404638 8.29135244 5.8125 2.125 C4.1625 2.785 2.5125 3.445 0.8125 4.125 C0.8125 3.465 0.8125 2.805 0.8125 2.125 C-2.29606698 2.87876822 -5.39831896 3.65592117 -8.5 4.4375 C-9.82161133 4.75750977 -9.82161133 4.75750977 -11.16992188 5.08398438 C-12.01748047 5.29990234 -12.86503906 5.51582031 -13.73828125 5.73828125 C-14.51856689 5.93204346 -15.29885254 6.12580566 -16.1027832 6.32543945 C-18.46113298 7.22994765 -19.50726379 8.2687804 -21.1875 10.125 C-22.21875 10.929375 -23.25 11.73375 -24.3125 12.5625 C-27.4534443 15.30744005 -27.4534443 15.30744005 -28.1875 19.125 C-27.5275 19.455 -26.8675 19.785 -26.1875 20.125 C-28.15216413 21.19275224 -30.15605359 22.19053465 -32.1875 23.125 C-32.8475 22.795 -33.5075 22.465 -34.1875 22.125 C-27.89321798 11.46174576 -20.21329873 4.27894918 -8.3125 0.53515625 C-5.51732431 -0.00435376 -2.84494013 -0.00693043 0 0 Z " fill="#D8B166" transform="translate(57.1875,90.875)"/>
<path d="M0 0 C4.31337308 4.31337308 3.24855674 10.82767775 3.25097656 16.56567383 C3.13500996 24.77733929 0.81540106 30.35806751 -4 37 C-8.46222938 36.4234198 -11.82902648 34.59102956 -15.625 32.3125 C-16.86002527 31.58613018 -18.09571169 30.86088343 -19.33203125 30.13671875 C-19.9451416 29.77626465 -20.55825195 29.41581055 -21.18994141 29.04443359 C-24.73215732 27.00051673 -28.36434633 25.12053141 -31.98828125 23.2265625 C-34 22 -34 22 -35 20 C-28.60401704 21.82107848 -23.51536644 24.33665698 -18 28 C-16.23657427 29.11595897 -14.46550932 30.21992616 -12.6875 31.3125 C-11.45580078 32.08013672 -11.45580078 32.08013672 -10.19921875 32.86328125 C-7.96842786 34.22958267 -7.96842786 34.22958267 -5 34 C-4.01 31.69 -3.02 29.38 -2 27 C-1.34 27 -0.68 27 0 27 C0.05790353 23.70840684 0.09356261 20.41694397 0.125 17.125 C0.14175781 16.18785156 0.15851563 15.25070313 0.17578125 14.28515625 C0.18222656 13.38925781 0.18867188 12.49335937 0.1953125 11.5703125 C0.20578613 10.74289551 0.21625977 9.91547852 0.22705078 9.06298828 C0.19302257 6.77601843 0.19302257 6.77601843 -2 5 C-1.34 3.35 -0.68 1.7 0 0 Z " fill="#93325D" transform="translate(181,44)"/>
<path d="M0 0 C3.39594557 1.01480405 4.92779856 2.79408959 7 5.59765625 C7.20625 6.73203125 7.4125 7.86640625 7.625 9.03515625 C9.79924348 14.66842344 14.70910147 16.18224605 20 18.59765625 C20 19.25765625 20 19.91765625 20 20.59765625 C14.83591174 19.17753198 10.02499865 17.18437727 6 13.59765625 C4.62370573 10.98068796 3.88592659 8.44194687 3 5.59765625 C-0.68115537 3.14355267 -2.65293598 3.36477782 -7 3.59765625 C-7.99 3.92765625 -8.98 4.25765625 -10 4.59765625 C-11.41933513 8.85566163 -11.72651677 12.82677163 -10 17.03515625 C-9.67 17.55078125 -9.34 18.06640625 -9 18.59765625 C-10.93359375 17.93359375 -10.93359375 17.93359375 -13 16.59765625 C-14.16070698 12.95961945 -14.34295013 9.39259619 -14 5.59765625 C-11.75 3.03515625 -11.75 3.03515625 -9 1.59765625 C-5.61028271 -0.66215528 -3.95601696 -0.63267183 0 0 Z " fill="#9A2D5D" transform="translate(126,43.40234375)"/>
<path d="M0 0 C0.66 0.33 1.32 0.66 2 1 C2.33053805 8.54270198 2.55761739 16.08353156 2.71411133 23.63183594 C2.77935752 26.19699873 2.86798237 28.76168034 2.98071289 31.32519531 C3.87166359 52.11135732 3.87166359 52.11135732 0.74954224 56.92990112 C-2.65904283 60.18479495 -6.53783393 61.5697146 -11 63 C-12.41864746 63.81571488 -13.82083954 64.66239412 -15.1875 65.5625 C-16.115625 66.036875 -17.04375 66.51125 -18 67 C-18.66 66.67 -19.32 66.34 -20 66 C-18.56839732 64.99157547 -17.12948547 63.99352109 -15.6875 63 C-14.88699219 62.443125 -14.08648437 61.88625 -13.26171875 61.3125 C-11 60 -11 60 -8 60 C-8 59.34 -8 58.68 -8 58 C-7.05125 57.5875 -6.1025 57.175 -5.125 56.75 C-1.81378263 54.89571827 -1.26857706 54.39487258 0 51 C0.28671445 48.68022598 0.28671445 48.68022598 0.22705078 46.18725586 C0.22689972 45.23624496 0.22674866 44.28523407 0.22659302 43.30540466 C0.21627045 42.28551956 0.20594788 41.26563446 0.1953125 40.21484375 C0.1924826 39.1622084 0.18965271 38.10957306 0.18673706 37.02503967 C0.1755483 33.66241057 0.15046111 30.30004838 0.125 26.9375 C0.11496717 24.66862367 0.10584185 22.39974313 0.09765625 20.13085938 C0.07798756 15.13920039 0.04956329 10.14767875 0.01345825 5.15611267 C0.00273043 3.43743607 0 1.71871008 0 0 Z " fill="#8F3358" transform="translate(118,62)"/>
<path d="M0 0 C-1.21894881 3.65684643 -2.11009784 3.94316328 -5.375 5.8125 C-6.71884766 6.58787109 -6.71884766 6.58787109 -8.08984375 7.37890625 C-11.92809581 9.51699297 -15.77872402 11.62976307 -19.65234375 13.703125 C-22.15407049 15.04261565 -22.15407049 15.04261565 -25 17 C-25.99 17 -26.98 17 -28 17 C-28 17.66 -28 18.32 -28 19 C-29.4317616 19.69937202 -30.87067032 20.38412718 -32.3125 21.0625 C-33.11300781 21.44535156 -33.91351563 21.82820313 -34.73828125 22.22265625 C-37 23 -37 23 -40 22 C-39.20416504 21.5467334 -38.40833008 21.0934668 -37.58837891 20.62646484 C-34.58721093 18.91643115 -31.58663258 17.20537143 -28.58642578 15.49365234 C-27.29694081 14.75822539 -26.00723366 14.02318784 -24.71728516 13.28857422 C-22.84476598 12.22209671 -20.9729739 11.1543576 -19.1015625 10.0859375 C-18.49185608 9.73819275 -17.88214966 9.390448 -17.25396729 9.03216553 C-12.73781085 6.4468748 -8.28586303 3.76857887 -3.86865234 1.01806641 C-2 0 -2 0 0 0 Z " fill="#94335E" transform="translate(113,34)"/>
<path d="M0 0 C3.7602985 0.58107632 6.53035032 1.65199496 9.8125 3.5625 C10.60269531 4.01753906 11.39289063 4.47257812 12.20703125 4.94140625 C12.79871094 5.29074219 13.39039063 5.64007813 14 6 C14 6.33 14 6.66 14 7 C12.35 7 10.7 7 9 7 C9 6.34 9 5.68 9 5 C6.34771188 3.92474806 3.71631546 2.90543849 1 2 C0.34 17.18 -0.32 32.36 -1 48 C-1.33 48 -1.66 48 -2 48 C-2.049623 42.28915661 -2.08582503 36.57844015 -2.10986328 30.86743164 C-2.1198898 28.92665418 -2.13351443 26.9858917 -2.15087891 25.04516602 C-2.17527489 22.24752084 -2.18651681 19.45007629 -2.1953125 16.65234375 C-2.20563507 15.7916478 -2.21595764 14.93095184 -2.22659302 14.04417419 C-2.22752775 8.96820807 -1.64042491 4.81058863 0 0 Z " fill="#B76157" transform="translate(127,62)"/>
<path d="M0 0 C0.66 0.33 1.32 0.66 2 1 C-1.11371882 4.38060901 -3.54087397 6.70920036 -8 8 C-8.99 8 -9.98 8 -11 8 C-8.65107226 13.28836804 -6.26118054 16.97555171 -2 21 C-2 21.66 -2 22.32 -2 23 C-1.01 23.33 -0.02 23.66 1 24 C0.01 24.33 -0.98 24.66 -2 25 C-6.62550984 20.7253013 -10.38308463 16.77902144 -13 11 C-12.96484375 9.03125 -12.96484375 9.03125 -12 7 C-9.34765625 5.04296875 -9.34765625 5.04296875 -6.0625 3.1875 C-4.98097656 2.56230469 -3.89945313 1.93710938 -2.78515625 1.29296875 C-1.86605469 0.86628906 -0.94695312 0.43960938 0 0 Z " fill="#C96D55" transform="translate(142,175)"/>
<path d="M0 0 C0.33 0 0.66 0 1 0 C1 2.97 1 5.94 1 9 C0.34 9 -0.32 9 -1 9 C0.32478357 19.64485582 0.32478357 19.64485582 3 30 C3.66 30 4.32 30 5 30 C5.5775 31.051875 6.155 32.10375 6.75 33.1875 C8.5661006 36.3786482 10.61991121 39.19489535 13 42 C6.85346874 39.44682548 2.77725984 33.19472033 0.125 27.25 C-1.59787831 22.27279598 -2.15648389 17.82903533 -2.1875 12.5625 C-2.20167969 11.47066406 -2.21585938 10.37882812 -2.23046875 9.25390625 C-1.99055478 5.86664623 -1.20639188 3.16141429 0 0 Z " fill="#D3AB63" transform="translate(22,116)"/>
<path d="M0 0 C0.66 0 1.32 0 2 0 C4.46406448 3.69609672 4.67864807 6.71027391 4 11 C2.22210886 14.02899973 0.73009767 15.5538292 -2.25 17.375 C-5.49399928 18.11227256 -7.83939276 17.63166174 -11.078125 17.08984375 C-13.9665362 16.9548164 -15.65733163 18.43822109 -18 20 C-20.3125 19.6875 -20.3125 19.6875 -22 19 C-16.65333086 15.19792417 -13.07686705 14.63007654 -6.55078125 15.0546875 C-3.76623036 14.99498809 -2.31517168 14.51557514 0 13 C1.57170996 9.85658007 1.23175783 6.44228549 1 3 C0.67 2.01 0.34 1.02 0 0 Z " fill="#C86B54" transform="translate(185,144)"/>
<path d="M0 0 C-0.33 0.99 -0.66 1.98 -1 3 C-1.99 3 -2.98 3 -4 3 C-4.33 3.99 -4.66 4.98 -5 6 C-7.66083969 7.99396257 -10.61242325 10 -14 10 C-14.12375 10.928125 -14.2475 11.85625 -14.375 12.8125 C-15 16 -15 16 -17 19 C-18.32 18.67 -19.64 18.34 -21 18 C-20.401875 17.67 -19.80375 17.34 -19.1875 17 C-16.64989733 15.04084814 -16.64989733 15.04084814 -16 11.25 C-14.21025056 5.72734459 -9.56213634 3.88222677 -4.71484375 1.25 C-2 0 -2 0 0 0 Z " fill="#D9AC69" transform="translate(91,141)"/>
<path d="M0 0 C6.39517534 1.82084853 11.48636506 4.33445381 17 8 C18.72138011 9.09566372 20.45084135 10.17871796 22.1875 11.25 C22.98542969 11.75015625 23.78335938 12.2503125 24.60546875 12.765625 C27.09290436 14.04789197 29.24411555 14.58882008 32 15 C31.67 15.66 31.34 16.32 31 17 C26.53777062 16.4234198 23.17097352 14.59102956 19.375 12.3125 C18.13997473 11.58613018 16.90428831 10.86088343 15.66796875 10.13671875 C15.0548584 9.77626465 14.44174805 9.41581055 13.81005859 9.04443359 C10.26784268 7.00051673 6.63565367 5.12053141 3.01171875 3.2265625 C1 2 1 2 0 0 Z " fill="#8F2D58" transform="translate(146,64)"/>
<path d="M0 0 C0.33 0 0.66 0 1 0 C1.09943798 4.5714698 1.17173349 9.14229975 1.21972656 13.71459961 C1.2397487 15.26744565 1.26697517 16.82021719 1.30175781 18.37280273 C1.3506961 20.61460832 1.37306168 22.85541093 1.390625 25.09765625 C1.41127014 25.78336197 1.43191528 26.46906769 1.45318604 27.17555237 C1.4556893 32.64531539 -0.15853737 35.51862514 -3 40 C-3.77485832 42.77138597 -3.77485832 42.77138597 -4 45 C-4.33 45 -4.66 45 -5 45 C-5.40709089 41.03086386 -4.91489707 38.6546669 -3.03125 35.25 C0.01260521 28.62819697 -0.32257926 21.57980546 -0.25 14.4375 C-0.22178687 13.0331672 -0.19185214 11.62886788 -0.16015625 10.22460938 C-0.08988285 6.81634932 -0.03697202 3.4087567 0 0 Z " fill="#E5B361" transform="translate(62,108)"/>
<path d="M0 0 C8.71393303 4.14500598 16.86677915 8.83146933 25 14 C24.34 14.66 23.68 15.32 23 16 C23 15.34 23 14.68 23 14 C20.42333392 12.94122448 17.8544067 11.9514689 15.2109375 11.0703125 C14.27507812 10.75835937 13.33921875 10.44640625 12.375 10.125 C11.43398437 9.81820312 10.49296875 9.51140625 9.5234375 9.1953125 C6.6894954 7.85291887 5.71659746 6.56716377 4 4 C1.91665365 2.7483533 1.91665365 2.7483533 0 2 C0 1.34 0 0.68 0 0 Z " fill="#D4AC63" transform="translate(125,124)"/>
<path d="M0 0 C7.39939331 0.38944175 13.51101699 4.8287595 18.9375 9.5625 C20.94094614 11.93020907 22.52187418 14.27713665 24 17 C23.34 17 22.68 17 22 17 C22 16.34 22 15.68 22 15 C21.1646875 14.938125 21.1646875 14.938125 20.3125 14.875 C17.42516165 13.7824936 16.33970343 12.00715009 14.484375 9.625 C10.69314133 5.47459682 5.25796852 2.80742668 0 1 C0 0.67 0 0.34 0 0 Z " fill="#8F305B" transform="translate(154,21)"/>
<path d="M0 0 C-5.07006276 2.53503138 -7.21472229 2.96421295 -13 2 C-13.33 2.99 -13.66 3.98 -14 5 C-19.94 5.495 -19.94 5.495 -26 6 C-19.01085524 -0.98914476 -9.33025006 -0.39485384 0 0 Z " fill="#993862" transform="translate(153,20)"/>
<path d="M0 0 C0.33 0 0.66 0 1 0 C1.33 11.22 1.66 22.44 2 34 C2.66 34.33 3.32 34.66 4 35 C4.625 37.0625 4.625 37.0625 5 39 C3.35 38.34 1.7 37.68 0 37 C0 24.79 0 12.58 0 0 Z " fill="#D46C58" transform="translate(126,81)"/>
<path d="M0 0 C0.33 0.66 0.66 1.32 1 2 C0.07767578 1.98259766 0.07767578 1.98259766 -0.86328125 1.96484375 C-2.07564453 1.95130859 -2.07564453 1.95130859 -3.3125 1.9375 C-4.11300781 1.92589844 -4.91351563 1.91429687 -5.73828125 1.90234375 C-8.16861334 1.90342145 -8.16861334 1.90342145 -11 3 C-12.41933513 7.25800538 -12.72651677 11.22911538 -11 15.4375 C-10.67 15.953125 -10.34 16.46875 -10 17 C-11.93359375 16.3359375 -11.93359375 16.3359375 -14 15 C-15.16316673 11.35425353 -15.30337843 7.80346666 -15 4 C-11.4096802 -1.32357763 -5.81006998 -0.40614081 0 0 Z " fill="#913460" transform="translate(127,45)"/>
<path d="M0 0 C1.32 0.33 2.64 0.66 4 1 C0.54565686 3.00695291 -2.9141063 5.00436779 -6.375 7 C-7.35984375 7.57234375 -8.3446875 8.1446875 -9.359375 8.734375 C-10.77089844 9.54648438 -10.77089844 9.54648438 -12.2109375 10.375 C-13.08024902 10.87773437 -13.94956055 11.38046875 -14.84521484 11.8984375 C-17 13 -17 13 -19 13 C-18 10 -18 10 -16.125 8.875 C-13.1366194 7.64449034 -10.13544093 6.75683057 -7 6 C-7 5.34 -7 4.68 -7 4 C-4.69 3.34 -2.38 2.68 0 2 C0 1.34 0 0.68 0 0 Z " fill="#DDAB5E" transform="translate(119,179)"/>
<path d="M0 0 C3.59391114 1.33488128 6.75490696 2.96022723 10 5 C10 7.1875 10 7.1875 9 10 C6.53933287 12.0496546 3.94576346 13.73494821 1 15 C0.34 14.67 -0.32 14.34 -1 14 C0.125 12.0625 0.125 12.0625 2 10 C5.1875 9.25 5.1875 9.25 8 9 C6.86500606 5.70851757 6.00716624 5.0040131 2.875 3.25 C1.92625 2.8375 0.9775 2.425 0 2 C0 1.34 0 0.68 0 0 Z " fill="#D5AC62" transform="translate(159,144)"/>
<path d="M0 0 C1.65 0 3.3 0 5 0 C5 1.32 5 2.64 5 4 C6.45833358 5.62514468 6.45833358 5.62514468 8 7 C8 7.66 8 8.32 8 9 C3.56909529 7.79157144 1.01887244 6.48331435 -2 3 C-1.34 3 -0.68 3 0 3 C0 2.01 0 1.02 0 0 Z " fill="#E5B35F" transform="translate(50,163)"/>
<path d="M0 0 C-2.78394043 1.70050657 -5.57827525 3.38311625 -8.375 5.0625 C-9.1690625 5.54783203 -9.963125 6.03316406 -10.78125 6.53320312 C-11.54179688 6.98759766 -12.30234375 7.44199219 -13.0859375 7.91015625 C-13.7876709 8.33433838 -14.4894043 8.75852051 -15.21240234 9.19555664 C-16.09726318 9.5937561 -16.09726318 9.5937561 -17 10 C-17.66 9.67 -18.32 9.34 -19 9 C-14.21836663 4.595864 -6.69683174 -2.23227725 0 0 Z " fill="#892C54" transform="translate(98,130)"/>
<path d="M0 0 C4.75 -0.125 4.75 -0.125 7 1 C8.093125 0.814375 9.18625 0.62875 10.3125 0.4375 C14.07719085 -0.00915824 15.69662547 0.2982616 19 2 C19 2.66 19 3.32 19 4 C15.66468987 3.68458838 12.33194155 3.34919911 9 3 C8.28972656 2.9278125 7.57945312 2.855625 6.84765625 2.78125 C2.23516187 2.23516187 2.23516187 2.23516187 0 0 Z " fill="#CF6E52" transform="translate(166,140)"/>
<path d="M0 0 C0 0.66 0 1.32 0 2 C-2.61970793 3.53064939 -5.24501643 5.04969748 -7.875 6.5625 C-8.99455078 7.21895508 -8.99455078 7.21895508 -10.13671875 7.88867188 C-10.85214844 8.29794922 -11.56757813 8.70722656 -12.3046875 9.12890625 C-13.2944458 9.70233765 -13.2944458 9.70233765 -14.30419922 10.28735352 C-14.86381348 10.52252686 -15.42342773 10.7577002 -16 11 C-16.66 10.67 -17.32 10.34 -18 10 C-9.55172414 3 -9.55172414 3 -5 3 C-5 2.34 -5 1.68 -5 1 C-3 0 -3 0 0 0 Z " fill="#D4AA60" transform="translate(141,168)"/>
<path d="M0 0 C0.66 0.33 1.32 0.66 2 1 C0.38118635 4.2376273 -2.92178508 5.33884878 -6 7 C-6.721875 7.433125 -7.44375 7.86625 -8.1875 8.3125 C-10.49108152 9.1862723 -11.67968752 8.66775038 -14 8 C-11.7136988 6.63597957 -9.42178251 5.28365726 -7.125 3.9375 C-6.47402344 3.54755859 -5.82304688 3.15761719 -5.15234375 2.75585938 C-3.46934275 1.77555467 -1.73703801 0.88101568 0 0 Z " fill="#D8B16C" transform="translate(110,129)"/>
<path d="M0 0 C2 2 2 2 2.22705078 4.06298828 C2.21657715 4.89040527 2.20610352 5.71782227 2.1953125 6.5703125 C2.18886719 7.46621094 2.18242187 8.36210938 2.17578125 9.28515625 C2.15902344 10.22230469 2.14226562 11.15945312 2.125 12.125 C2.11597656 13.06988281 2.10695312 14.01476563 2.09765625 14.98828125 C2.07404522 17.32577292 2.04111516 19.66276123 2 22 C1.34 21.67 0.68 21.34 0 21 C0.02320313 20.01257813 0.04640625 19.02515625 0.0703125 18.0078125 C0.08835938 16.72648437 0.10640625 15.44515625 0.125 14.125 C0.14820313 12.84882812 0.17140625 11.57265625 0.1953125 10.2578125 C0.35641524 6.91406662 0.35641524 6.91406662 -2 5 C-1.34 3.35 -0.68 1.7 0 0 Z " fill="#9E2A61" transform="translate(181,44)"/>
<path d="M0 0 C3.66579598 0.58496744 6.50499144 1.57826707 9.75 3.375 C10.52859375 3.79523438 11.3071875 4.21546875 12.109375 4.6484375 C14 6 14 6 15 9 C11.32305352 7.62859834 8.04681411 5.96304199 4.6875 3.9375 C3.80449219 3.41027344 2.92148438 2.88304687 2.01171875 2.33984375 C1.34785156 1.89769531 0.68398437 1.45554688 0 1 C0 0.67 0 0.34 0 0 Z " fill="#C97256" transform="translate(146,128)"/>
<path d="M0 0 C4.75 0.875 4.75 0.875 7 2 C7 2.66 7 3.32 7 4 C10.3 4.66 13.6 5.32 17 6 C16.34 6.66 15.68 7.32 15 8 C10.96274339 7.66986658 8.09654467 6.1009816 4.6875 4 C3.80449219 3.46375 2.92148438 2.9275 2.01171875 2.375 C1.34785156 1.92125 0.68398437 1.4675 0 1 C0 0.67 0 0.34 0 0 Z " fill="#D6AF65" transform="translate(83,186)"/>
<path d="M0 0 C-1.01007276 2.6075248 -1.68518363 3.80441446 -4.09375 5.30078125 C-4.8878125 5.63464844 -5.681875 5.96851563 -6.5 6.3125 C-7.69109375 6.83263672 -7.69109375 6.83263672 -8.90625 7.36328125 C-11 8 -11 8 -13 7 C-11.54261898 6.01941648 -10.08406325 5.04057868 -8.625 4.0625 C-7.81289062 3.51722656 -7.00078125 2.97195312 -6.1640625 2.41015625 C-2.46537396 0 -2.46537396 0 0 0 Z " fill="#93335F" transform="translate(127,26)"/>
<path d="M0 0 C1.32 0 2.64 0 4 0 C4 0.66 4 1.32 4 2 C4.63808594 2.18175781 5.27617188 2.36351562 5.93359375 2.55078125 C7.17302734 2.92783203 7.17302734 2.92783203 8.4375 3.3125 C9.67306641 3.67794922 9.67306641 3.67794922 10.93359375 4.05078125 C11.95646484 4.52064453 11.95646484 4.52064453 13 5 C13.33 5.99 13.66 6.98 14 8 C8.76481294 6.56032356 4.36973991 4.18303389 0 1 C0 0.67 0 0.34 0 0 Z " fill="#D6AF65" transform="translate(58,172)"/>
<path d="M0 0 C-0.33 0.99 -0.66 1.98 -1 3 C-1.99 3 -2.98 3 -4 3 C-4.33 3.99 -4.66 4.98 -5 6 C-7.21593183 7.71054387 -9.46190652 8.75321724 -12 10 C-12.66 9.67 -13.32 9.34 -14 9 C-13.071875 8.401875 -12.14375 7.80375 -11.1875 7.1875 C-8.76738466 5.52663653 -6.989023 4.08373838 -5 2 C-2 0 -2 0 0 0 Z " fill="#E5B162" transform="translate(91,141)"/>
<path d="M0 0 C0.33 0 0.66 0 1 0 C1.33 2.64 1.66 5.28 2 8 C5.465 7.505 5.465 7.505 9 7 C6.8445332 9.47878682 5.28880515 10.57563804 2 11 C1.34 10.67 0.68 10.34 0 10 C0 6.7 0 3.4 0 0 Z " fill="#843152" transform="translate(70,133)"/>
<path d="M0 0 C5.79782471 2.44573251 9.28685474 4.89442527 13 10 C8.50002404 8.80000641 6.61351093 7.80147044 4 4 C1.91665365 2.7483533 1.91665365 2.7483533 0 2 C0 1.34 0 0.68 0 0 Z " fill="#DDB166" transform="translate(125,124)"/>
<path d="M0 0 C3.9492568 0.55105909 7.34920174 1.38935371 11 3 C10.34 3.66 9.68 4.32 9 5 C8.01 4.67 7.02 4.34 6 4 C4.00326516 3.64763503 2.00349261 3.31165441 0 3 C0 2.01 0 1.02 0 0 Z " fill="#A42C64" transform="translate(150,21)"/>
<path d="M0 0 C2.9375 1.3125 2.9375 1.3125 6 3 C6.33 3.99 6.66 4.98 7 6 C0.25 4.25 0.25 4.25 -2 2 C-1.34 2 -0.68 2 0 2 C0 1.34 0 0.68 0 0 Z " fill="#D17058" transform="translate(192,98)"/>
<path d="M0 0 C-1.45264038 0.8638129 -2.9123163 1.71580454 -4.375 2.5625 C-5.59316406 3.27599609 -5.59316406 3.27599609 -6.8359375 4.00390625 C-7.55007812 4.33261719 -8.26421875 4.66132813 -9 5 C-9.66 4.67 -10.32 4.34 -11 4 C-7.51147246 0.16261971 -5.09041622 -1.48780432 0 0 Z " fill="#D2A95D" transform="translate(158,160)"/>
<path d="M0 0 C1.46067199 0.45082469 2.91848032 0.91093537 4.375 1.375 C5.18710938 1.63023438 5.99921875 1.88546875 6.8359375 2.1484375 C9 3 9 3 11 5 C10.34 5.66 9.68 6.32 9 7 C7.4972763 6.02501855 5.99788037 5.04490611 4.5 4.0625 C3.6646875 3.51722656 2.829375 2.97195312 1.96875 2.41015625 C1.3190625 1.94480469 0.669375 1.47945313 0 1 C0 0.67 0 0.34 0 0 Z " fill="#93325C" transform="translate(146,64)"/>
<path d="M0 0 C0.66 0.33 1.32 0.66 2 1 C1.01 1.33 0.02 1.66 -1 2 C-1.33 2.99 -1.66 3.98 -2 5 C-4.31 5.33 -6.62 5.66 -9 6 C-7.73295613 3.46591226 -6.56876843 3.06790028 -4.0625 1.8125 C-3.35222656 1.44769531 -2.64195312 1.08289063 -1.91015625 0.70703125 C-1.27980469 0.47371094 -0.64945313 0.24039063 0 0 Z " fill="#C5745B" transform="translate(161,164)"/>
<path d="M0 0 C-1 3 -1 3 -2.8125 4.25 C-5.33943414 5.11637742 -6.52221994 4.88492145 -9 4 C-2.25 0 -2.25 0 0 0 Z " fill="#D17052" transform="translate(172,159)"/>
<path d="M0 0 C0.33 0 0.66 0 1 0 C1 2.97 1 5.94 1 9 C0.34 9 -0.32 9 -1 9 C-2.25541557 5.23375329 -1.37061958 3.62811066 0 0 Z " fill="#DEB96E" transform="translate(22,116)"/>
<path d="M0 0 C2.97 0.33 5.94 0.66 9 1 C9 1.99 9 2.98 9 4 C5.17902761 3.46930939 2.93828597 2.50298434 0 0 Z " fill="#82284C" transform="translate(168,77)"/>
<path d="M0 0 C2.31 0 4.62 0 7 0 C3.93882432 2.62386487 3.26826873 3 -1 3 C-0.67 2.01 -0.34 1.02 0 0 Z " fill="#A8598A" transform="translate(154,231)"/>
<path d="M0 0 C1.9375 0.8125 1.9375 0.8125 4 2 C4.33 2.99 4.66 3.98 5 5 C4.01 5 3.02 5 2 5 C1.34 3.35 0.68 1.7 0 0 Z " fill="#9C476B" transform="translate(134,232)"/>
<path d="" fill="#FF0000" transform="translate(0,0)"/>
<path d="" fill="#FF0000" transform="translate(0,0)"/>
</svg>
